<svg xmlns="http://www.w3.org/2000/svg" xmlns:xlink="http://www.w3.org/1999/xlink" width="500" zoomAndPan="magnify" viewBox="0 0 375 374.999991" height="500" preserveAspectRatio="xMidYMid meet" version="1.0"><defs><g/><clipPath id="id1"><path d="M 20.160156 166.308594 L 354.660156 166.308594 L 354.660156 206.808594 L 20.160156 206.808594 Z M 20.160156 166.308594 " clip-rule="nonzero"/></clipPath></defs><g fill="#231f20" fill-opacity="1"><g transform="translate(43.713052, 259.616186)"><g><path d="M 12.394531 0 L 60.382812 0 C 108.371094 0 137.589844 -24.789062 137.589844 -70.832031 C 137.589844 -118.816406 107.484375 -141.660156 60.382812 -141.660156 L 12.394531 -141.660156 C 13.8125 -128.203125 14.34375 -120.234375 14.34375 -103.765625 L 14.34375 -37.894531 C 14.34375 -21.425781 13.8125 -13.457031 12.394531 0 Z M 59.320312 -3.71875 L 44.09375 -3.71875 L 44.09375 -137.941406 L 59.320312 -137.941406 C 86.765625 -137.941406 105.359375 -116.871094 105.359375 -70.832031 C 105.359375 -26.5625 86.765625 -3.71875 59.320312 -3.71875 Z M 59.320312 -3.71875 "/></g></g></g><g fill="#231f20" fill-opacity="1"><g transform="translate(183.066734, 259.616186)"><g><path d="M 12.394531 0 L 60.382812 0 C 108.371094 0 137.589844 -24.789062 137.589844 -70.832031 C 137.589844 -118.816406 107.484375 -141.660156 60.382812 -141.660156 L 12.394531 -141.660156 C 13.8125 -128.203125 14.34375 -120.234375 14.34375 -103.765625 L 14.34375 -37.894531 C 14.34375 -21.425781 13.8125 -13.457031 12.394531 0 Z M 59.320312 -3.71875 L 44.09375 -3.71875 L 44.09375 -137.941406 L 59.320312 -137.941406 C 86.765625 -137.941406 105.359375 -116.871094 105.359375 -70.832031 C 105.359375 -26.5625 86.765625 -3.71875 59.320312 -3.71875 Z M 59.320312 -3.71875 "/></g></g></g><g clip-path="url(#id1)"><path fill="#fbfaf9" d="M 20.175781 166.308594 L 354.640625 166.308594 L 354.640625 206.808594 L 20.175781 206.808594 L 20.175781 166.308594 " fill-opacity="1" fill-rule="nonzero"/></g><g fill="#ffffff" fill-opacity="1"><g transform="translate(116.858945, 189.559588)"><g><path d="M 0.84375 -6.453125 L 3.5 -6.453125 C 4.457031 -6.453125 5.25 -6.144531 5.875 -5.53125 C 6.507812 -4.925781 6.828125 -4.15625 6.828125 -3.21875 C 6.828125 -2.289062 6.507812 -1.519531 5.875 -0.90625 C 5.25 -0.300781 4.445312 0 3.46875 0 L 0.84375 0 Z M 1.9375 -5.46875 L 1.9375 -0.984375 L 3.515625 -0.984375 C 4.148438 -0.984375 4.675781 -1.191406 5.09375 -1.609375 C 5.519531 -2.023438 5.734375 -2.554688 5.734375 -3.203125 C 5.734375 -3.859375 5.515625 -4.398438 5.078125 -4.828125 C 4.648438 -5.253906 4.113281 -5.46875 3.46875 -5.46875 Z M 1.9375 -5.46875 "/></g></g></g><g fill="#ffffff" fill-opacity="1"><g transform="translate(129.991193, 189.559588)"><g><path d="M 1.9375 0 L 0.84375 0 L 0.84375 -6.453125 L 1.9375 -6.453125 Z M 1.9375 0 "/></g></g></g><g fill="#ffffff" fill-opacity="1"><g transform="translate(138.766698, 189.559588)"><g><path d="M 5.265625 -3.171875 L 6.21875 -3.171875 L 6.21875 -0.796875 C 5.882812 -0.546875 5.488281 -0.34375 5.03125 -0.1875 C 4.582031 -0.03125 4.140625 0.046875 3.703125 0.046875 C 2.753906 0.046875 1.953125 -0.265625 1.296875 -0.890625 C 0.640625 -1.523438 0.3125 -2.300781 0.3125 -3.21875 C 0.3125 -4.144531 0.640625 -4.921875 1.296875 -5.546875 C 1.960938 -6.171875 2.785156 -6.484375 3.765625 -6.484375 C 4.222656 -6.484375 4.671875 -6.398438 5.109375 -6.234375 C 5.546875 -6.066406 5.925781 -5.847656 6.25 -5.578125 L 5.625 -4.78125 C 5.101562 -5.269531 4.484375 -5.515625 3.765625 -5.515625 C 3.109375 -5.515625 2.550781 -5.289062 2.09375 -4.84375 C 1.644531 -4.40625 1.421875 -3.863281 1.421875 -3.21875 C 1.421875 -2.582031 1.648438 -2.039062 2.109375 -1.59375 C 2.566406 -1.15625 3.125 -0.9375 3.78125 -0.9375 C 4.28125 -0.9375 4.773438 -1.082031 5.265625 -1.375 Z M 5.265625 -3.171875 "/></g></g></g><g fill="#ffffff" fill-opacity="1"><g transform="translate(151.659465, 189.559588)"><g><path d="M 1.9375 0 L 0.84375 0 L 0.84375 -6.453125 L 1.9375 -6.453125 Z M 1.9375 0 "/></g></g></g><g fill="#ffffff" fill-opacity="1"><g transform="translate(160.434971, 189.559588)"><g><path d="M 5.25 -5.46875 L 3.203125 -5.46875 L 3.203125 0 L 2.125 0 L 2.125 -5.46875 L 0.078125 -5.46875 L 0.078125 -6.453125 L 5.25 -6.453125 Z M 5.25 -5.46875 "/></g></g></g><g fill="#ffffff" fill-opacity="1"><g transform="translate(171.761892, 189.559588)"><g><path d="M 5.015625 -1.453125 L 1.765625 -1.453125 L 1.140625 0 L 0.015625 0 L 2.859375 -6.453125 L 3.96875 -6.453125 L 6.796875 0 L 5.625 0 Z M 4.59375 -2.421875 L 3.390625 -5.296875 L 2.171875 -2.421875 Z M 4.59375 -2.421875 "/></g></g></g><g fill="#ffffff" fill-opacity="1"><g transform="translate(184.553336, 189.559588)"><g><path d="M 1.9375 -0.984375 L 4.734375 -0.984375 L 4.734375 0 L 0.84375 0 L 0.84375 -6.453125 L 1.9375 -6.453125 Z M 1.9375 -0.984375 "/></g></g></g><g fill="#ffffff" fill-opacity="1"><g transform="translate(195.465763, 189.559588)"><g/></g></g><g fill="#ffffff" fill-opacity="1"><g transform="translate(203.835989, 189.559588)"><g><path d="M 0.84375 -6.453125 L 3.5 -6.453125 C 4.457031 -6.453125 5.25 -6.144531 5.875 -5.53125 C 6.507812 -4.925781 6.828125 -4.15625 6.828125 -3.21875 C 6.828125 -2.289062 6.507812 -1.519531 5.875 -0.90625 C 5.25 -0.300781 4.445312 0 3.46875 0 L 0.84375 0 Z M 1.9375 -5.46875 L 1.9375 -0.984375 L 3.515625 -0.984375 C 4.148438 -0.984375 4.675781 -1.191406 5.09375 -1.609375 C 5.519531 -2.023438 5.734375 -2.554688 5.734375 -3.203125 C 5.734375 -3.859375 5.515625 -4.398438 5.078125 -4.828125 C 4.648438 -5.253906 4.113281 -5.46875 3.46875 -5.46875 Z M 1.9375 -5.46875 "/></g></g></g><g fill="#ffffff" fill-opacity="1"><g transform="translate(216.968237, 189.559588)"><g><path d="M 1.9375 0 L 0.84375 0 L 0.84375 -6.453125 L 1.9375 -6.453125 Z M 1.9375 0 "/></g></g></g><g fill="#ffffff" fill-opacity="1"><g transform="translate(225.743738, 189.559588)"><g><path d="M 5.453125 -5.46875 L 1.9375 -5.46875 L 1.9375 -3.734375 L 5.09375 -3.734375 L 5.09375 -2.75 L 1.9375 -2.75 L 1.9375 -0.984375 L 5.5625 -0.984375 L 5.5625 0 L 0.84375 0 L 0.84375 -6.453125 L 5.453125 -6.453125 Z M 5.453125 -5.46875 "/></g></g></g><g fill="#ffffff" fill-opacity="1"><g transform="translate(237.779889, 189.559588)"><g><path d="M 5.265625 -3.171875 L 6.21875 -3.171875 L 6.21875 -0.796875 C 5.882812 -0.546875 5.488281 -0.34375 5.03125 -0.1875 C 4.582031 -0.03125 4.140625 0.046875 3.703125 0.046875 C 2.753906 0.046875 1.953125 -0.265625 1.296875 -0.890625 C 0.640625 -1.523438 0.3125 -2.300781 0.3125 -3.21875 C 0.3125 -4.144531 0.640625 -4.921875 1.296875 -5.546875 C 1.960938 -6.171875 2.785156 -6.484375 3.765625 -6.484375 C 4.222656 -6.484375 4.671875 -6.398438 5.109375 -6.234375 C 5.546875 -6.066406 5.925781 -5.847656 6.25 -5.578125 L 5.625 -4.78125 C 5.101562 -5.269531 4.484375 -5.515625 3.765625 -5.515625 C 3.109375 -5.515625 2.550781 -5.289062 2.09375 -4.84375 C 1.644531 -4.40625 1.421875 -3.863281 1.421875 -3.21875 C 1.421875 -2.582031 1.648438 -2.039062 2.109375 -1.59375 C 2.566406 -1.15625 3.125 -0.9375 3.78125 -0.9375 C 4.28125 -0.9375 4.773438 -1.082031 5.265625 -1.375 Z M 5.265625 -3.171875 "/></g></g></g><g fill="#ffffff" fill-opacity="1"><g transform="translate(250.672653, 189.559588)"><g><path d="M 1.296875 -5.546875 C 1.953125 -6.171875 2.765625 -6.484375 3.734375 -6.484375 C 4.703125 -6.484375 5.515625 -6.171875 6.171875 -5.546875 C 6.828125 -4.921875 7.15625 -4.144531 7.15625 -3.21875 C 7.15625 -2.300781 6.828125 -1.523438 6.171875 -0.890625 C 5.515625 -0.265625 4.703125 0.046875 3.734375 0.046875 C 2.765625 0.046875 1.953125 -0.265625 1.296875 -0.890625 C 0.640625 -1.523438 0.3125 -2.300781 0.3125 -3.21875 C 0.3125 -4.144531 0.640625 -4.921875 1.296875 -5.546875 Z M 3.75 -5.5 C 3.101562 -5.5 2.550781 -5.28125 2.09375 -4.84375 C 1.644531 -4.40625 1.421875 -3.863281 1.421875 -3.21875 C 1.421875 -2.582031 1.648438 -2.039062 2.109375 -1.59375 C 2.566406 -1.15625 3.109375 -0.9375 3.734375 -0.9375 C 4.367188 -0.9375 4.910156 -1.15625 5.359375 -1.59375 C 5.804688 -2.039062 6.03125 -2.582031 6.03125 -3.21875 C 6.03125 -3.863281 5.804688 -4.40625 5.359375 -4.84375 C 4.910156 -5.28125 4.375 -5.5 3.75 -5.5 Z M 3.75 -5.5 "/></g></g></g></svg>