<svg xmlns="http://www.w3.org/2000/svg" xmlns:xlink="http://www.w3.org/1999/xlink" width="500" zoomAndPan="magnify" viewBox="0 0 375 374.999991" height="500" preserveAspectRatio="xMidYMid meet" version="1.0"><defs><g/><clipPath id="id1"><path d="M 20.160156 166.308594 L 354.660156 166.308594 L 354.660156 206.808594 L 20.160156 206.808594 Z M 20.160156 166.308594 " clip-rule="nonzero"/></clipPath></defs><g fill="#fbfaf9" fill-opacity="1"><g transform="translate(45.929427, 259.538129)"><g><path d="M 127.671875 -18.945312 L 73.308594 -89.601562 L 106.421875 -123.777344 C 112.796875 -130.148438 117.402344 -134.753906 126.253906 -141.660156 L 117.046875 -141.660156 C 112.441406 -134.753906 108.191406 -130.328125 101.109375 -123.246094 L 44.089844 -64.988281 L 44.089844 -103.765625 C 44.089844 -120.234375 44.621094 -128.203125 46.039062 -141.660156 L 12.394531 -141.660156 C 13.8125 -128.203125 14.34375 -120.234375 14.34375 -103.765625 L 14.34375 -37.894531 C 14.34375 -21.425781 13.8125 -13.457031 12.394531 0 L 46.039062 0 C 44.621094 -13.457031 44.089844 -21.425781 44.089844 -37.894531 L 44.089844 -59.675781 L 51.882812 -67.644531 L 89.953125 -18.945312 C 96.683594 -9.917969 99.160156 -6.90625 102.527344 0 L 146.441406 0 C 137.765625 -6.730469 133.691406 -11.15625 127.671875 -18.945312 Z M 127.671875 -18.945312 "/></g></g></g><g fill="#fbfaf9" fill-opacity="1"><g transform="translate(188.824675, 259.538129)"><g><path d="M 12.394531 0 L 19.476562 0 C 18.0625 -13.457031 17.53125 -21.425781 17.53125 -37.894531 L 17.53125 -133.691406 L 18.238281 -133.515625 L 92.257812 0 L 127.847656 0 C 126.609375 -13.457031 126.078125 -21.425781 126.078125 -37.894531 L 126.078125 -103.765625 C 126.078125 -120.234375 126.609375 -128.203125 127.847656 -141.660156 L 120.941406 -141.660156 C 122.359375 -128.203125 122.714844 -120.234375 122.714844 -103.765625 L 122.714844 -7.96875 L 122.003906 -8.144531 L 48.164062 -141.660156 L 12.394531 -141.660156 C 13.8125 -128.203125 14.34375 -120.234375 14.34375 -103.765625 L 14.34375 -37.894531 C 14.34375 -21.425781 13.8125 -13.457031 12.394531 0 Z M 12.394531 0 "/></g></g></g><g clip-path="url(#id1)"><path fill="#231f20" d="M 20.175781 166.308594 L 354.640625 166.308594 L 354.640625 206.808594 L 20.175781 206.808594 L 20.175781 166.308594 " fill-opacity="1" fill-rule="nonzero"/></g><g fill="#dec2ba" fill-opacity="1"><g transform="translate(57.039427, 191.604525)"><g><path d="M 6.921875 0 L 4.078125 -3.828125 L 2.609375 -2.203125 L 2.609375 0 L 1.140625 0 L 1.140625 -8.671875 L 2.609375 -8.671875 L 2.609375 -4.1875 L 6.734375 -8.671875 L 8.46875 -8.671875 L 5.109375 -4.96875 L 8.6875 0 Z M 6.921875 0 "/></g></g></g><g fill="#dec2ba" fill-opacity="1"><g transform="translate(75.855462, 191.604525)"><g><path d="M 2.609375 0 L 1.140625 0 L 1.140625 -8.671875 L 2.609375 -8.671875 Z M 2.609375 0 "/></g></g></g><g fill="#dec2ba" fill-opacity="1"><g transform="translate(89.518964, 191.604525)"><g><path d="M 10.3125 0 L 8.953125 0 L 8.953125 -6.484375 L 6.203125 -0.90625 L 5.25 -0.90625 L 2.515625 -6.484375 L 2.515625 0 L 1.140625 0 L 1.140625 -8.671875 L 2.875 -8.671875 L 5.734375 -2.90625 L 8.59375 -8.671875 L 10.3125 -8.671875 Z M 10.3125 0 "/></g></g></g><g fill="#dec2ba" fill-opacity="1"><g transform="translate(110.898872, 191.604525)"><g><path d="M 1.140625 -8.671875 L 4.90625 -8.671875 C 5.800781 -8.671875 6.507812 -8.476562 7.03125 -8.09375 C 7.550781 -7.707031 7.8125 -7.175781 7.8125 -6.5 C 7.8125 -6.019531 7.675781 -5.609375 7.40625 -5.265625 C 7.132812 -4.921875 6.765625 -4.691406 6.296875 -4.578125 C 6.867188 -4.472656 7.320312 -4.226562 7.65625 -3.84375 C 7.988281 -3.457031 8.15625 -2.96875 8.15625 -2.375 C 8.15625 -1.632812 7.875 -1.050781 7.3125 -0.625 C 6.75 -0.207031 5.976562 0 5 0 L 1.140625 0 Z M 2.609375 -7.375 L 2.609375 -5.078125 L 4.828125 -5.078125 C 5.296875 -5.078125 5.660156 -5.179688 5.921875 -5.390625 C 6.179688 -5.597656 6.3125 -5.882812 6.3125 -6.25 C 6.3125 -6.613281 6.179688 -6.890625 5.921875 -7.078125 C 5.660156 -7.273438 5.296875 -7.375 4.828125 -7.375 Z M 2.609375 -3.796875 L 2.609375 -1.296875 L 4.828125 -1.296875 C 5.410156 -1.296875 5.859375 -1.40625 6.171875 -1.625 C 6.492188 -1.84375 6.65625 -2.15625 6.65625 -2.5625 C 6.65625 -2.945312 6.492188 -3.25 6.171875 -3.46875 C 5.847656 -3.6875 5.398438 -3.796875 4.828125 -3.796875 Z M 2.609375 -3.796875 "/></g></g></g><g fill="#dec2ba" fill-opacity="1"><g transform="translate(129.566275, 191.604525)"><g><path d="M 7.328125 -7.359375 L 2.609375 -7.359375 L 2.609375 -5.015625 L 6.84375 -5.015625 L 6.84375 -3.703125 L 2.609375 -3.703125 L 2.609375 -1.3125 L 7.484375 -1.3125 L 7.484375 0 L 1.140625 0 L 1.140625 -8.671875 L 7.328125 -8.671875 Z M 7.328125 -7.359375 "/></g></g></g><g fill="#dec2ba" fill-opacity="1"><g transform="translate(147.614377, 191.604525)"><g><path d="M 6.640625 0 L 5.0625 -2.625 C 4.976562 -2.613281 4.84375 -2.609375 4.65625 -2.609375 L 2.609375 -2.609375 L 2.609375 0 L 1.140625 0 L 1.140625 -8.671875 L 4.65625 -8.671875 C 5.757812 -8.671875 6.617188 -8.410156 7.234375 -7.890625 C 7.847656 -7.378906 8.15625 -6.65625 8.15625 -5.71875 C 8.15625 -5.019531 8 -4.429688 7.6875 -3.953125 C 7.375 -3.472656 6.929688 -3.125 6.359375 -2.90625 L 8.296875 0 Z M 2.609375 -3.921875 L 4.65625 -3.921875 C 6.0625 -3.921875 6.765625 -4.503906 6.765625 -5.671875 C 6.765625 -6.796875 6.0625 -7.359375 4.65625 -7.359375 L 2.609375 -7.359375 Z M 2.609375 -3.921875 "/></g></g></g><g fill="#dec2ba" fill-opacity="1"><g transform="translate(166.49234, 191.604525)"><g><path d="M 2.609375 -1.328125 L 6.359375 -1.328125 L 6.359375 0 L 1.140625 0 L 1.140625 -8.671875 L 2.609375 -8.671875 Z M 2.609375 -1.328125 "/></g></g></g><g fill="#dec2ba" fill-opacity="1"><g transform="translate(183.02936, 191.604525)"><g><path d="M 4.703125 -2.890625 L 4.703125 0 L 3.25 0 L 3.25 -2.84375 L 0.015625 -8.671875 L 1.484375 -8.671875 L 3.96875 -4.453125 L 6.390625 -8.671875 L 7.875 -8.671875 Z M 4.703125 -2.890625 "/></g></g></g><g fill="#dec2ba" fill-opacity="1"><g transform="translate(200.842145, 191.604525)"><g/></g></g><g fill="#dec2ba" fill-opacity="1"><g transform="translate(213.960681, 191.604525)"><g><path d="M 8.65625 0 L 7.21875 0 L 2.609375 -6.21875 L 2.609375 0 L 1.140625 0 L 1.140625 -8.671875 L 2.578125 -8.671875 L 7.21875 -2.4375 L 7.21875 -8.671875 L 8.65625 -8.671875 Z M 8.65625 0 "/></g></g></g><g fill="#dec2ba" fill-opacity="1"><g transform="translate(233.693273, 191.604525)"><g><path d="M 7.078125 -4.265625 L 8.34375 -4.265625 L 8.34375 -1.0625 C 7.90625 -0.726562 7.378906 -0.457031 6.765625 -0.25 C 6.160156 -0.0390625 5.566406 0.0625 4.984375 0.0625 C 3.703125 0.0625 2.617188 -0.359375 1.734375 -1.203125 C 0.859375 -2.054688 0.421875 -3.097656 0.421875 -4.328125 C 0.421875 -5.566406 0.863281 -6.601562 1.75 -7.4375 C 2.644531 -8.28125 3.75 -8.703125 5.0625 -8.703125 C 5.675781 -8.703125 6.273438 -8.59375 6.859375 -8.375 C 7.453125 -8.15625 7.96875 -7.863281 8.40625 -7.5 L 7.578125 -6.421875 C 6.859375 -7.078125 6.019531 -7.40625 5.0625 -7.40625 C 4.175781 -7.40625 3.425781 -7.109375 2.8125 -6.515625 C 2.207031 -5.921875 1.90625 -5.195312 1.90625 -4.34375 C 1.90625 -3.46875 2.210938 -2.734375 2.828125 -2.140625 C 3.441406 -1.546875 4.191406 -1.25 5.078125 -1.25 C 5.742188 -1.25 6.410156 -1.445312 7.078125 -1.84375 Z M 7.078125 -4.265625 "/></g></g></g><g fill="#dec2ba" fill-opacity="1"><g transform="translate(252.893268, 191.604525)"><g><path d="M 8.515625 -8.671875 L 8.515625 -3.59375 C 8.515625 -2.457031 8.175781 -1.5625 7.5 -0.90625 C 6.832031 -0.257812 5.910156 0.0625 4.734375 0.0625 C 3.566406 0.0625 2.644531 -0.257812 1.96875 -0.90625 C 1.300781 -1.5625 0.96875 -2.457031 0.96875 -3.59375 L 0.96875 -8.671875 L 2.421875 -8.671875 L 2.421875 -3.59375 C 2.421875 -2.863281 2.628906 -2.289062 3.046875 -1.875 C 3.472656 -1.457031 4.046875 -1.25 4.765625 -1.25 C 5.472656 -1.25 6.03125 -1.453125 6.4375 -1.859375 C 6.84375 -2.273438 7.046875 -2.851562 7.046875 -3.59375 L 7.046875 -8.671875 Z M 8.515625 -8.671875 "/></g></g></g><g fill="#dec2ba" fill-opacity="1"><g transform="translate(272.279046, 191.604525)"><g><path d="M 4.703125 -2.890625 L 4.703125 0 L 3.25 0 L 3.25 -2.84375 L 0.015625 -8.671875 L 1.484375 -8.671875 L 3.96875 -4.453125 L 6.390625 -8.671875 L 7.875 -8.671875 Z M 4.703125 -2.890625 "/></g></g></g><g fill="#dec2ba" fill-opacity="1"><g transform="translate(290.091832, 191.604525)"><g><path d="M 7.328125 -7.359375 L 2.609375 -7.359375 L 2.609375 -5.015625 L 6.84375 -5.015625 L 6.84375 -3.703125 L 2.609375 -3.703125 L 2.609375 -1.3125 L 7.484375 -1.3125 L 7.484375 0 L 1.140625 0 L 1.140625 -8.671875 L 7.328125 -8.671875 Z M 7.328125 -7.359375 "/></g></g></g><g fill="#dec2ba" fill-opacity="1"><g transform="translate(308.139929, 191.604525)"><g><path d="M 8.65625 0 L 7.21875 0 L 2.609375 -6.21875 L 2.609375 0 L 1.140625 0 L 1.140625 -8.671875 L 2.578125 -8.671875 L 7.21875 -2.4375 L 7.21875 -8.671875 L 8.65625 -8.671875 Z M 8.65625 0 "/></g></g></g></svg>